<svg xmlns="http://www.w3.org/2000/svg" viewBox="0 0 320 96" role="img" aria-label="Heroku logo">
  <rect width="320" height="96" rx="18" fill="#430098"/>
  <path d="M34 18h12v24h26V18h12v60H72V54H46v24H34V18z" fill="#fff"/>
  <path d="M111 30h12v8c4-6 10-10 19-10 14 0 24 11 24 27v23h-12V57c0-11-5-17-14-17-9 0-15 7-15 18v20h-12V30zm66 0h12v48h-12V30zm6-23c4 0 7 3 7 7s-3 7-7 7-7-3-7-7 3-7 7-7zm23 23h12v7c4-5 10-9 18-9 9 0 15 4 19 10 5-6 12-10 21-10 14 0 23 9 23 25v25h-12V56c0-10-5-16-13-16-8 0-14 6-14 17v21h-12V56c0-10-5-16-13-16-8 0-14 6-14 17v21h-12V30z" fill="#fff"/>
</svg>
